<!DOCTYPE svg PUBLIC "-//W3C//DTD SVG 1.1//EN" "http://www.w3.org/Graphics/SVG/1.1/DTD/svg11.dtd">

<!-- Uploaded to: SVG Repo, www.svgrepo.com, Transformed by: SVG Repo Mixer Tools -->
<svg version="1.1" id="Icons" xmlns="http://www.w3.org/2000/svg" xmlns:xlink="http://www.w3.org/1999/xlink" viewBox="0 0 32 32" xml:space="preserve" width="70px" height="70px" fill="#fff" stroke="#fff">

<g id="SVGRepo_bgCarrier" stroke-width="0"/>

<g id="SVGRepo_tracerCarrier" stroke-linecap="round" stroke-linejoin="round"/>

<g id="SVGRepo_iconCarrier"> <style type="text/css"> .st0{fill:none;stroke:#000000;stroke-width:2;stroke-linecap:round;stroke-linejoin:round;stroke-miterlimit:10;} </style> <g> <path d="M23.5,13c-0.8,0-1.5,0.7-1.5,1.5v-1c0-0.8-0.7-1.5-1.5-1.5S19,12.7,19,13.5v-1c0-0.8-0.7-1.5-1.5-1.5S16,11.7,16,12.5v1 c0-0.8-0.7-1.5-1.5-1.5S13,12.7,13,13.5V21v2.4l-2.5-2.5c-0.6-0.6-1.5-0.7-2.1-0.2c-0.8,0.6-0.9,1.8-0.2,2.5L15,30h8 c1.3-3.3,2-6.8,2-10.4v-5.1C25,13.7,24.3,13,23.5,13z"/> </g> <path d="M31,16.2c-0.6-1.2-0.8-2.6-0.4-4c0.3-1.1,0.4-2.3,0.2-3.5c-0.5-3.3-3.2-6-6.5-6.6c-1.8-0.3-3.6,0-5.1,0.8 c-1.5,0.8-3.2,1-4.8,0.4c-1.2-0.4-2.5-0.5-3.9-0.3C7.3,3.7,4.7,6.3,4.1,9.5l0,0.1C3.6,12.5,2.6,15.4,1,18c-0.9,1.6-1.3,3.5-0.9,5.4 c0.6,3.2,3.1,5.8,6.3,6.4C6.9,29.9,7.5,30,8,30c1.2,0,2.4-0.3,3.4-0.8l-4.7-4.7c-0.7-0.7-1.1-1.8-1-2.8c0.1-1.1,0.6-2,1.5-2.6 c1.1-0.8,2.6-0.9,3.8-0.2v-5.3c0-1.9,1.6-3.5,3.5-3.5c0.2,0,0.3,0,0.5,0c0.6-0.6,1.5-1,2.5-1s1.9,0.4,2.5,1c1.1-0.2,2.3,0.2,3,1 c0.2,0,0.3,0,0.5,0c1.9,0,3.5,1.6,3.5,3.5v5.1c0,2.8-0.4,5.5-1.1,8.2c1.4-0.3,2.6-1,3.7-2c1.6-1.5,2.5-3.6,2.5-5.8 C32,18.7,31.7,17.4,31,16.2z"/> </g>

</svg>