<!DOCTYPE svg PUBLIC "-//W3C//DTD SVG 1.1//EN" "http://www.w3.org/Graphics/SVG/1.1/DTD/svg11.dtd">
<!-- Uploaded to: SVG Repo, www.svgrepo.com, Transformed by: SVG Repo Mixer Tools -->
<svg width="150px" height="150px" viewBox="-8 -8 36.00 36.00" version="1.1" xmlns="http://www.w3.org/2000/svg" xmlns:xlink="http://www.w3.org/1999/xlink" fill="#4175fc" stroke="#4175fc">
<g id="SVGRepo_bgCarrier" stroke-width="0"/>
<g id="SVGRepo_tracerCarrier" stroke-linecap="round" stroke-linejoin="round" stroke="#4175f" stroke-width="3.96"> <title>communication / 16 - communication, bubble, chat, comments, conversation, message icon</title> <g id="Free-Icons" stroke-width="2" fill="none" fill-rule="evenodd" stroke-linecap="round" stroke-linejoin="round"> <g transform="translate(-1265.000000, -156.000000)" id="Group" stroke="#4175fc" stroke-width="2"> <g transform="translate(1263.000000, 154.000000)" id="Shape"> <path d="M8.29997591,16.1586109 L4.71,18.3 L5.32628923,14.6238888 C3.83281239,13.3921212 3,11.6856969 3,9.8 C3,6.0444637 6.30329488,3 11.55,3 C16.7967051,3 20.1,6.0444637 20.1,9.8 C20.1,13.5555363 16.7967051,16.6 11.55,16.6 C10.3617053,16.6 9.27309774,16.4438342 8.29997591,16.1586109 Z"> </path> <path d="M19.7000346,12 C20.5370398,12.8311353 21,13.932301 21,15.1401596 C21,16.4401458 20.4637233,17.6165428 19.5020218,18.4657147 L19.8988718,21 L17.587162,19.5237413 C16.9605351,19.7203723 16.259543,19.8280319 15.4943589,19.8280319 C12.7385072,19.8280319 10.8153028,18.4315592 10.2,16.5116586 L10.2,16.5116586"> </path> </g> </g> </g> </g>
<g id="SVGRepo_iconCarrier"> <title>communication / 16 - communication, bubble, chat, comments, conversation, message icon</title> <g id="Free-Icons" stroke-width="2" fill="none" fill-rule="evenodd" stroke-linecap="round" stroke-linejoin="round"> <g transform="translate(-1265.000000, -156.000000)" id="Group" stroke="#4175fc" stroke-width="2"> <g transform="translate(1263.000000, 154.000000)" id="Shape"> <path d="M8.29997591,16.1586109 L4.71,18.3 L5.32628923,14.6238888 C3.83281239,13.3921212 3,11.6856969 3,9.8 C3,6.0444637 6.30329488,3 11.55,3 C16.7967051,3 20.1,6.0444637 20.1,9.8 C20.1,13.5555363 16.7967051,16.6 11.55,16.6 C10.3617053,16.6 9.27309774,16.4438342 8.29997591,16.1586109 Z"> </path> <path d="M19.7000346,12 C20.5370398,12.8311353 21,13.932301 21,15.1401596 C21,16.4401458 20.4637233,17.6165428 19.5020218,18.4657147 L19.8988718,21 L17.587162,19.5237413 C16.9605351,19.7203723 16.259543,19.8280319 15.4943589,19.8280319 C12.7385072,19.8280319 10.8153028,18.4315592 10.2,16.5116586 L10.2,16.5116586"> </path> </g> </g> </g> </g>
</svg>